<svg width="45" height="45" viewBox="0 0 45 45" fill="none" xmlns="http://www.w3.org/2000/svg">
<path d="M43.7062 27.2756C44.0325 25.8103 44.2012 24.2916 44.2012 22.7334C44.2012 11.0475 34.5938 1.57219 22.7391 1.57219C21.4903 1.57219 20.2641 1.67906 19.0688 1.88156C17.1506 0.691875 14.8809 0 12.4481 0C5.57156 0 0 5.49281 0 12.2737C0 14.5378 0.624375 16.6556 1.71 18.4809C1.42594 19.8534 1.27406 21.2766 1.27406 22.7334C1.27406 34.4222 10.8844 43.8975 22.7362 43.8975C24.0806 43.8975 25.3941 43.7738 26.6681 43.5431C28.4231 44.4713 30.4256 45 32.5547 45C39.4284 45 45 39.5044 45 32.7291C45 30.7687 44.5331 28.9209 43.7062 27.2756ZM33.7472 32.8472C32.7544 34.2337 31.2891 35.3306 29.385 36.1069C27.5034 36.8803 25.2506 37.2741 22.68 37.2741C19.5975 37.2741 17.0128 36.7397 14.9934 35.6822C13.5506 34.9144 12.3637 33.8766 11.4609 32.5884C10.5469 31.2947 10.0884 30.0094 10.0884 28.7662C10.0884 27.9928 10.3894 27.3206 10.9828 26.7722C11.5706 26.2238 12.3244 25.9509 13.2244 25.9509C13.9613 25.9509 14.5969 26.1675 15.1144 26.5978C15.6066 27.0112 16.0312 27.6244 16.3716 28.4091C16.7513 29.2697 17.1647 29.9953 17.6006 30.5606C18.0253 31.1147 18.63 31.5759 19.4034 31.9387C20.1825 32.2987 21.2316 32.4872 22.5197 32.4872C24.2944 32.4872 25.7512 32.1131 26.8425 31.3763C27.9141 30.6591 28.4316 29.7928 28.4316 28.7353C28.4316 27.9028 28.1587 27.2447 27.6047 26.73C27.0197 26.19 26.2491 25.7709 25.3153 25.4813C24.3394 25.1831 23.0147 24.8569 21.3778 24.5194C19.1475 24.0497 17.2547 23.4928 15.7528 22.86C14.2144 22.2131 12.9712 21.3188 12.0656 20.1994C11.1431 19.0603 10.6763 17.6344 10.6763 15.9581C10.6763 14.3606 11.1656 12.9206 12.1331 11.6775C13.0922 10.4428 14.4928 9.47813 16.3013 8.82281C18.0816 8.17313 20.1994 7.84406 22.5984 7.84406C24.5138 7.84406 26.1984 8.06344 27.6075 8.49656C29.0222 8.92969 30.2147 9.51469 31.1513 10.2375C32.0963 10.9688 32.7994 11.7422 33.2381 12.5522C33.6825 13.3678 33.9103 14.1806 33.9103 14.9653C33.9103 15.7219 33.615 16.4109 33.03 17.0072C32.4394 17.6119 31.6969 17.9156 30.825 17.9156C30.0319 17.9156 29.4075 17.7216 28.9772 17.3475C28.575 16.9959 28.1559 16.4475 27.6947 15.6656C27.1603 14.6644 26.5106 13.8741 25.7681 13.3144C25.0453 12.7716 23.8416 12.5016 22.1822 12.5016C20.6466 12.5016 19.3922 12.8053 18.4641 13.4072C17.5697 13.9838 17.1338 14.6475 17.1338 15.435C17.1338 15.9159 17.2744 16.3181 17.5641 16.6641C17.8678 17.0353 18.2981 17.3531 18.8438 17.6231C19.4062 17.9016 19.9884 18.1266 20.5706 18.2841C21.1669 18.4472 22.1653 18.6919 23.5406 19.0041C25.2787 19.3697 26.8734 19.7831 28.2853 20.2303C29.7169 20.6775 30.9488 21.2316 31.9613 21.8813C32.9878 22.5422 33.8006 23.3859 34.38 24.3984C34.9594 25.4194 35.2519 26.6709 35.2519 28.1278C35.2491 29.8688 34.7428 31.4578 33.7472 32.8472Z" fill="white"/>
</svg>
