<?xml version="1.0"?>
<svg xmlns="http://www.w3.org/2000/svg" xmlns:xlink="http://www.w3.org/1999/xlink" version="1.1" id="Capa_1" x="0px" y="0px" viewBox="0 0 512 512" style="enable-background:new 0 0 512 512;" xml:space="preserve" width="512px" height="512px"><g><g>
	<g>
		<path d="M256,0C114.848,0,0,114.848,0,256v240c0,8.832,7.168,16,16,16h240c141.152,0,256-114.848,256-256S397.152,0,256,0z     M272,320H144c-8.832,0-16-7.168-16-16c0-8.832,7.168-16,16-16h128c8.832,0,16,7.168,16,16C288,312.832,280.832,320,272,320z     M368,224H144c-8.832,0-16-7.168-16-16c0-8.832,7.168-16,16-16h224c8.832,0,16,7.168,16,16C384,216.832,376.832,224,368,224z" data-original="#000000" class="active-path" data-old_color="#000000" fill="#FFFFFF"/>
	</g>
</g></g> </svg>
