<svg width="45" height="45" viewBox="0 0 45 45" fill="none" xmlns="http://www.w3.org/2000/svg">
<path d="M10.0631 14.0625H0V45H10.0631V14.0625Z" fill="white"/>
<path d="M37.4738 14.4253C37.3669 14.3916 37.2656 14.355 37.1531 14.3241C37.0181 14.2931 36.8831 14.2678 36.7453 14.2453C36.2109 14.1384 35.6259 14.0625 34.9397 14.0625C29.0728 14.0625 25.3519 18.3291 24.1256 19.9772V14.0625H14.0625V45H24.1256V28.125C24.1256 28.125 31.7306 17.5331 34.9397 25.3125C34.9397 32.2566 34.9397 45 34.9397 45H45V24.1228C45 19.4484 41.7966 15.5531 37.4738 14.4253Z" fill="white"/>
<path d="M4.92188 9.84375C7.64015 9.84375 9.84375 7.64015 9.84375 4.92188C9.84375 2.2036 7.64015 0 4.92188 0C2.2036 0 0 2.2036 0 4.92188C0 7.64015 2.2036 9.84375 4.92188 9.84375Z" fill="white"/>
</svg>
