<svg id="Layer_1" enable-background="new 0 0 512 512" height="512" viewBox="0 0 512 512" width="512" xmlns="http://www.w3.org/2000/svg"><g><g><path clip-rule="evenodd" d="m84.525 301.878c-58.316-37.117-85.241-90.442-84.511-133.02 1.139-69.561 67.223-110.387 125.044-4.818l77.094-68.276c19.157-16.938 38.05-22.457 53.849-22.837 15.769.38 34.692 5.899 53.849 22.837l77.094 68.276c57.82-105.569 123.876-64.743 125.044 4.818.701 42.578-26.194 95.902-84.54 133.019-12.177 85.127-132.549 136.319-171.446 137.195-38.928-.875-159.27-52.068-171.477-137.194zm373.058-161.171c-19.186-5.052-43.599 33.583-41.292 61.063 1.694 20.15 5.753 30.021 4.994 47.747-.788 17.931 23.333-7.213 41.642-34.898 12.674-19.128 26.224-65.56-5.344-73.912zm-403.165 0c19.186-5.052 43.57 33.583 41.263 61.063-1.665 20.15-5.724 30.021-4.964 47.747.759 17.931-23.333-7.213-41.642-34.898-12.675-19.128-26.254-65.56 5.343-73.912z" fill="#7e707d" fill-rule="evenodd"/></g><g><path clip-rule="evenodd" d="m.014 168.858c-.73 42.578 26.194 95.902 84.511 133.019 12.207 85.127 132.549 136.319 171.475 137.195 38.897-.876 159.269-52.069 171.446-137.195 58.346-37.117 85.241-90.442 84.54-133.019-.088-4.76-.467-9.403-1.139-13.842-5.665 39.074-53.236 114.563-103.989 136.553-12.206 85.127-111.96 115.731-150.857 116.608-38.926-.876-138.681-31.481-150.858-116.607-50.754-21.991-98.324-97.48-104.019-136.554-.642 4.439-1.051 9.082-1.11 13.842z" fill="#6a5c69" fill-rule="evenodd"/></g><g><path d="m256.001 390.321c-4.268 0-7.726-3.459-7.726-7.726v-254.767c0-4.267 3.459-7.726 7.726-7.726s7.726 3.459 7.726 7.726v254.766c0 4.268-3.458 7.727-7.726 7.727z" fill="#6a5c69"/></g><g><path d="m146.201 195.946c-2.053 0-4.103-.814-5.623-2.427-2.928-3.105-2.783-7.995.322-10.922l16.821-15.857c3.104-2.926 7.995-2.783 10.922.322 2.928 3.105 2.783 7.995-.322 10.922l-16.821 15.858c-1.492 1.407-3.397 2.104-5.299 2.104z" fill="#d3cfd2"/></g><g><path d="m365.771 195.946c-1.901 0-3.806-.697-5.299-2.104l-16.821-15.857c-3.105-2.927-3.25-7.817-.322-10.922 2.928-3.106 7.816-3.248 10.922-.322l16.821 15.857c3.105 2.927 3.249 7.817.322 10.922-1.521 1.612-3.57 2.426-5.623 2.426z" fill="#d3cfd2"/></g></g></svg>